<?xml version="1.0" encoding="utf-8"?>
<!-- Generator: Adobe Illustrator 24.0.1, SVG Export Plug-In . SVG Version: 6.00 Build 0)  -->
<svg version="1.1" id="Layer_1" xmlns="http://www.w3.org/2000/svg" xmlns:xlink="http://www.w3.org/1999/xlink" x="0px" y="0px"
	 viewBox="0 0 841.9 595.3" style="enable-background:new 0 0 841.9 595.3;" xml:space="preserve">
<style type="text/css">
	.st0{fill:#00B0D6;}
</style>
<g>
	<g>
		<g>
			<path class="st0" d="M689.8,326.4V201.6c0-15.9-12.9-28.8-28.8-28.8h-19.2c-7.4,0-14.1,2.9-19.2,7.5c-5.1-4.6-11.8-7.5-19.2-7.5
				h-19.2c-7.4,0-14.1,2.9-19.2,7.5c-5.1-4.6-11.8-7.5-19.2-7.5h-19.2c-15.9,0-28.8,12.9-28.8,28.8v123.2
				c-22.1-15.4-54.5-28.4-101.8-34L411.1,185c0.2-1.3,0.3-2.6,0.3-3.9c0-15.2-12.3-27.5-27.5-27.5h-87.7V67.2c0-5.3,4.3-9.6,9.6-9.6
				h76.8c15.9,0,28.8-12.9,28.8-28.8c0-15.9-12.9-28.8-28.8-28.8h-86.4c-31.8,0-57.6,25.8-57.6,57.6v96h-87.7
				c-15.2,0-27.5,12.3-27.5,27.5c0,1.3,0.1,2.6,0.3,3.9l23.1,162c-22.8,27.2-23.4,54-23.4,56.3c0,16.7,10.8,30.9,25.8,36.1
				c-4.2,6.1-6.6,13.5-6.6,21.5c0,10.2,4.1,19.5,10.6,26.4c-17.8,9.8-29.8,28.7-29.8,50.4c0,31.8,25.8,57.6,57.6,57.6h288h19.2
				h230.4V393.7v-9.6v-28.8C718.6,339.4,705.7,326.4,689.8,326.4z M632.2,201.6c0-5.3,4.3-9.6,9.6-9.6H661c5.3,0,9.6,4.3,9.6,9.6
				v124.8h-38.4L632.2,201.6L632.2,201.6z M574.6,201.6c0-5.3,4.3-9.6,9.6-9.6h19.2c5.3,0,9.6,4.3,9.6,9.6v124.8h-38.4L574.6,201.6
				L574.6,201.6z M517,201.6c0-5.3,4.3-9.6,9.6-9.6h19.2c5.3,0,9.6,4.3,9.6,9.6v124.8H517L517,201.6L517,201.6z M363.3,19.2h19.2
				c5.3,0,9.6,4.3,9.6,9.6c0,5.3-4.3,9.6-9.6,9.6h-19.2V19.2z M324.9,19.2h19.2v19.2h-19.2V19.2z M257.7,57.6
				c0-21.2,17.2-38.4,38.4-38.4h9.6v19.2c-15.9,0-28.8,12.9-28.8,28.8v86.4h-19.2V57.6z M144,192l-1.4-9.7c-0.1-0.4-0.1-0.8-0.1-1.2
				c0-4.6,3.7-8.3,8.3-8.3h87.7h57.6h87.7c4.6,0,8.3,3.7,8.3,8.3c0,0.4,0,0.8-0.1,1.2l-1.4,9.7h-27.3v19.2h24.6l-5.5,38.4H152.2
				l-5.5-38.4h197.4V192H144z M379.7,268.8l-2.9,20.3c-10.3-0.7-21.1-1.1-32.7-1.1h-19.2c-83.7,0-132.5,19.5-161.2,42.4l-8.8-61.6
				H379.7z M142.5,403.3c0-1,2.1-96,182.4-96h19.2c179.1,0,182.4,92.2,182.4,96c0,10.6-8.6,19.2-19.2,19.2h-9.6h-9.6H180.9h-19.2
				C151.1,422.5,142.5,413.8,142.5,403.3z M180.9,480.1c-10.6,0-19.2-8.6-19.2-19.2c0-10.6,8.6-19.2,19.2-19.2h307.2
				c10.6,0,19.2,8.6,19.2,19.2c0,10.6-8.6,19.2-19.2,19.2H180.9z M448.1,499.3l-39.4,46l-105.1-46H448.1z M488.2,576.1H469h-288
				c-21.2,0-38.4-17.2-38.4-38.4c0-21.2,17.2-38.4,38.4-38.4h74.8L414,568.5l59.4-69.3h14.8c21.2,0,38.4,17.2,38.4,38.4
				C526.6,558.9,509.3,576.1,488.2,576.1z M515.9,487.2c6.5-6.9,10.6-16.1,10.6-26.4c0-7-2-13.5-5.3-19.2H661v96H545.8
				c0-6.7-1.2-13.2-3.4-19.2h61v-19.2H531C526.7,494.5,521.6,490.4,515.9,487.2z M699.4,384.1h-19.2v19.2h19.2v172.8H531
				c5-5.5,8.9-12,11.4-19.2h137.8V422.5H540.4c3.3-5.7,5.3-12.2,5.3-19.2H661v-19.2H542.5c-3.1-10.7-9.3-24.5-21.3-38.4h168.6
				c5.3,0,9.6,4.3,9.6,9.6L699.4,384.1L699.4,384.1z"/>
			<rect x="622.6" y="499.3" class="st0" width="19.2" height="19.2"/>
			<rect x="248.1" y="326.4" class="st0" width="19.2" height="19.2"/>
			<rect x="286.5" y="345.6" class="st0" width="19.2" height="19.2"/>
			<rect x="324.9" y="326.4" class="st0" width="19.2" height="19.2"/>
			<rect x="382.5" y="355.2" class="st0" width="19.2" height="19.2"/>
			<rect x="430.5" y="326.4" class="st0" width="19.2" height="19.2"/>
			<rect x="190.5" y="364.8" class="st0" width="19.2" height="19.2"/>
		</g>
	</g>
</g>
</svg>
