<?xml version="1.0" encoding="utf-8"?>
<!-- Generator: Adobe Illustrator 24.0.1, SVG Export Plug-In . SVG Version: 6.00 Build 0)  -->
<svg version="1.1" id="Capa_1" xmlns="http://www.w3.org/2000/svg" xmlns:xlink="http://www.w3.org/1999/xlink" x="0px" y="0px"
	 viewBox="0 0 841.9 595.3" style="enable-background:new 0 0 841.9 595.3;" xml:space="preserve">
<style type="text/css">
	.st0{fill:#00B0D6;}
</style>
<path class="st0" d="M717.5,453.4c-1.6-3-4.8-5-8.3-5h-232v-77.3h199.9c3.5,0,6.7-1.9,8.3-5c1.6-3.1,1.4-6.8-0.6-9.7L477.2,53.6
	V41.4c0-5.2-4.2-9.4-9.4-9.4s-9.4,4.2-9.4,9.4v63.3L327.8,341.1c-1.6,2.9-1.6,6.4,0.1,9.3c1.7,2.9,4.8,4.6,8.1,4.6h100.7
	c5.2,0,9.4-4.2,9.4-9.4c0-5.2-4.2-9.4-9.4-9.4h-84.8l106.6-192.8v304.9h-19.1v-4.6c0-32.8-26.7-59.4-59.4-59.4h-77.7V172.9
	c0,0,0,0,0,0v-5.6c0-5.2-4.2-9.4-9.4-9.4s-9.4,4.2-9.4,9.4v2.7L157,356.4c-2,2.9-2.2,6.6-0.5,9.7c1.6,3.1,4.8,5,8.3,5h96.1
	c5.2,0,9.4-4.2,9.4-9.4c0-5.2-4.2-9.4-9.4-9.4h-78.4l101-148.9v180.9h-22.6c-5.2,0-9.4,4.2-9.4,9.4v22.6h-54.7
	c-5.2,0-9.4,4.2-9.4,9.4v22.6h-54.7c-3,0-5.8,1.4-7.6,3.9c-1.8,2.4-2.2,5.6-1.3,8.5l32,96.1c1.3,3.8,4.9,6.4,8.9,6.4h480.4
	c3.1,0,6.1-1.6,7.8-4.2L717,463C718.9,460.1,719.1,456.4,717.5,453.4z M659.4,352.3H477.2V107.2c0,0,0,0,0-0.1V86.8L659.4,352.3z
	 M640.1,544.5H171.5l-25.8-77.3h246.6c5.2,0,9.4-4.2,9.4-9.4c0-5.2-4.2-9.4-9.4-9.4H206.1v-13.3h54.7c5.2,0,9.4-4.2,9.4-9.4v-22.6
	h109.7c11.9,0,22.6,5.1,30,13.3H300.8c-5.2,0-9.4,4.2-9.4,9.4c0,5.2,4.2,9.4,9.4,9.4h118.8c0.6,2.8,0.9,5.7,0.9,8.6v14
	c0,5.2,4.2,9.4,9.4,9.4c0.5,0,1-0.1,1.5-0.1c0.5,0.1,1,0.1,1.5,0.1h258.6L640.1,544.5z"/>
</svg>
