<?xml version="1.0" encoding="utf-8"?>
<!-- Generator: Adobe Illustrator 24.0.1, SVG Export Plug-In . SVG Version: 6.00 Build 0)  -->
<svg version="1.1" id="Capa_1" xmlns="http://www.w3.org/2000/svg" xmlns:xlink="http://www.w3.org/1999/xlink" x="0px" y="0px"
	 viewBox="0 0 841.9 595.3" style="enable-background:new 0 0 841.9 595.3;" xml:space="preserve">
<style type="text/css">
	.st0{fill:#00B0D6;}
</style>
<g>
	<path class="st0" d="M684.1,576.5h-63.7v-19.2c0-43.9-11.7-77.9-34.8-100.8c-29-28.8-65.2-29.3-67.8-29.3c0,0-0.1,0-0.1,0h-46.9
		v-28.4c0-0.5,0-1-0.1-1.5c30-12.4,49-33.1,60.6-51.1c18-28,22.1-54.9,22.3-56.1c0.1-0.4,0.1-0.9,0.1-1.3v-2c6.6-1.6,12.3-5,16.8-10
		c13.3-14.7,12.5-37.8,11.5-47.1c-0.7-7.1-3.9-13-9.2-17.1c-0.3-0.2-0.6-0.5-0.9-0.7c10.7-34.9,6.7-65.3,4.5-76.8
		c15.7-12.8,18.2-26.3,18.3-27.2c0.1-0.5,0.1-1,0.1-1.5c0-26.6-18.9-53.6-51.7-74.2C510,11.4,467.6,0,423.8,0
		c-0.6,0-1.3,0.1-1.9,0.2C421.3,0.1,420.6,0,420,0c-43.8,0-86.2,11.4-119.3,32.2C267.9,52.8,249,79.8,249,106.4c0,0.5,0,1,0.1,1.5
		c0.1,0.9,2.4,13.4,16.5,25.7c-2.1,10.1-7,41.7,4.2,78.3c-0.3,0.2-0.6,0.4-0.9,0.7c-5.3,4.1-8.5,10.1-9.2,17.1
		c-0.9,9.3-1.7,32.4,11.5,47.1c4.6,5.1,10.4,8.5,17.1,10.1v2c0,0.4,0,0.9,0.1,1.3c0.2,1.1,4.2,28.1,22.3,56.1
		c11.6,18,30.6,38.7,60.6,51.1c-0.1,0.5-0.1,1-0.1,1.5v28.4h-46.9c-1.6,0-38.5,0.1-68,29.3c-23.1,22.9-34.8,56.9-34.8,100.8v19.2
		h-63.7c-5.2,0-9.4,4.2-9.4,9.4s4.2,9.4,9.4,9.4h526.4c5.2,0,9.4-4.2,9.4-9.4S689.3,576.5,684.1,576.5z M537.5,449.3
		c9.9,2.9,22,8.4,33,18.7L550,483.5c-3.9-3.3-8-6.3-12.5-9L537.5,449.3L537.5,449.3z M582.7,482.2c5.9,8.8,10.5,18.9,13.6,30.5
		h-24.1c-2.7-5.6-5.9-10.7-9.4-15.4L582.7,482.2z M517.8,446c0,0,0.4,0,1,0V480c0,3.5,2,6.7,5.1,8.3c15.3,7.8,26.6,20.3,33.7,37.3
		c1.5,3.5,4.9,5.8,8.6,5.8h33.9c1.1,8.1,1.7,16.7,1.7,25.9v19.2H453.3c0-0.7-0.1-1.3-0.3-2l-18-68.2l12.9,4.2c1,0.3,1.9,0.5,2.9,0.5
		c2.7,0,5.3-1.1,7.1-3.2l9.8-11.3l17-10.4c3.3-2,5-5.8,4.3-9.6l-5.3-30.6L517.8,446L517.8,446L517.8,446z M376.2,458.5
		c6.8,13.8,19.8,24,35.4,27l-16.4,5.4l-6.6-7.7c-0.6-0.7-1.4-1.4-2.2-1.9l-12.8-7.8L376.2,458.5z M466.5,456.7l2.9,16.7l-12.8,7.8
		c-0.8,0.5-1.6,1.1-2.2,1.9l-6.6,7.7l-16.8-5.5C446.9,482.1,460,471.2,466.5,456.7z M434.1,576.5H409l12.6-47.7L434.1,576.5z
		 M556.5,264.3c-0.9,1-1.9,1.8-2.9,2.5v-42c2.9,0.3,5.8,1.1,7.6,2.5c0.9,0.7,1.9,1.8,2.1,4.3C564.5,242.5,563.3,256.9,556.5,264.3z
		 M554,206.1c-0.1,0-0.3,0-0.4,0v-17.9c0-0.6-0.1-1.1-0.2-1.7c-0.2-2.7-1.5-5.4-3.9-7.1L528,164.1v-9c0.4,0,0.8-0.1,1.2-0.1
		c12-2.2,21.8-5.5,29.9-9.2C560.6,158.5,561.6,181.1,554,206.1z M420.9,142.3c51.7,0,78.1,5.9,88.3,9v8.3
		c-90.8,30.4-163.7,5.1-176.6,0.2v-8.5C342.9,148.2,369.3,142.3,420.9,142.3z M420,18.7c0.6,0,1.3-0.1,1.9-0.2
		c0.6,0.1,1.2,0.2,1.9,0.2c85.1,0,151.2,46.3,152.3,86.6c-1,3.5-8.8,23.5-50.3,31.2c-0.6,0.1-1.2,0.3-1.8,0.5
		c-0.4-0.3-0.8-0.5-1.2-0.7c-2.6-1.3-27.7-12.8-101.8-12.8c-74.1,0-99.2,11.5-101.8,12.8c-0.2,0.1-0.3,0.2-0.5,0.3
		c-0.2,0-0.3-0.1-0.5-0.1c-41.4-7.7-49.2-27.3-50.3-31.3C268.9,65,335,18.7,420,18.7z M282.8,144.8c8.2,4.1,18.5,7.6,31.2,10v9.3
		l-21.5,15.2c-2.4,1.7-3.8,4.4-3.9,7.1c-0.1,0.5-0.2,1.1-0.2,1.7V206c-0.2,0-0.4,0-0.7,0.1C279.9,180.4,281.1,157.3,282.8,144.8z
		 M285.1,264.3c-6.7-7.4-7.9-21.8-6.8-32.7c0.3-2.5,1.2-3.5,2.1-4.2c1.9-1.5,4.9-2.2,7.9-2.6v42.1
		C287.1,266.2,286.1,265.4,285.1,264.3z M326.8,336.7c-14.7-22.5-19.1-44.8-19.7-48.6v-96.2l20-14.1c11.3,4.3,44.9,15.5,91.8,15.5
		c27.9,0,60.4-4,95.7-15.7l20.3,14.3v96.2c-0.7,3.8-4.9,25.6-19.4,48c-21,32.6-52.5,50.5-93.7,53.2h-1.7
		C379.2,386.7,347.8,369,326.8,336.7z M419.2,408.1c0.2,0,0.4,0,0.6,0h2.4c0.2,0,0.4,0,0.6,0c10.6-0.7,20.4-2.3,29.3-4.6v32.7
		c0,0.1,0,0.2,0,0.2c0,17.1-13.9,31.1-31.1,31.1c-17.1,0-31.1-13.9-31.1-31.1v-33C398.8,405.8,408.5,407.4,419.2,408.1z
		 M259.4,482.1l20,15.1c-3.5,4.7-6.7,9.9-9.4,15.4h-24.3C249,500.4,253.8,490.3,259.4,482.1z M292.2,483.5l-20.7-15.6
		c11.1-10.4,23.3-15.8,33.2-18.7v25.3C300.2,477.2,296.1,480.2,292.2,483.5z M240.2,557.4c0-9.4,0.6-18,1.7-25.9H276
		c3.8,0,7.2-2.3,8.6-5.8c7.1-17,18.4-29.5,33.7-37.3c3.1-1.6,5.1-4.8,5.1-8.3V446c0.4,0,0.6,0,0.8,0h35.2l-5.3,30.6
		c-0.7,3.8,1.1,7.6,4.3,9.6l17,10.4l9.8,11.3c1.8,2.1,4.4,3.2,7.1,3.2c1,0,2-0.1,2.9-0.5l13-4.2l-18,68.2c-0.2,0.7-0.3,1.4-0.3,2
		H240.2V557.4z"/>
	<circle class="st0" cx="354.5" cy="223.5" r="11.2"/>
	<circle class="st0" cx="487.4" cy="223.5" r="11.2"/>
	<path class="st0" d="M418.5,289.4h4.8c12.4,0,22.5-10.1,22.5-22.5v-32.7c0-5.2-4.2-9.4-9.4-9.4s-9.4,4.2-9.4,9.4v32.7
		c0,2.1-1.7,3.7-3.7,3.7h-4.8c-2.1,0-3.7-1.7-3.7-3.7c0-5.2-4.2-9.4-9.4-9.4c-5.2,0-9.4,4.2-9.4,9.4
		C396.1,279.3,406.1,289.4,418.5,289.4z"/>
	<path class="st0" d="M421.9,103.4c18.4,0,33.3-14.9,33.3-33.3c0-5.2-4.2-9.4-9.4-9.4c-5.2,0-9.4,4.2-9.4,9.4c0,4.5-2,8.5-5.2,11.2
		V60.1c5.1,0,9.3-4.2,9.3-9.4c0-5.2-4.2-9.4-9.4-9.4h-3.6c0.7-1.1,1.1-2.3,1.1-3.7c0-3.7-3-6.8-6.8-6.8c-3.7,0-6.8,3-6.8,6.8
		c0,1.4,0.4,2.6,1.1,3.7h-3.6c-5.2,0-9.4,4.2-9.4,9.4c0,5.2,4.2,9.3,9.3,9.4v21.1c-3.2-2.7-5.2-6.7-5.2-11.2c0-5.2-4.2-9.4-9.4-9.4
		c-5.2,0-9.4,4.2-9.4,9.4C388.6,88.4,403.5,103.4,421.9,103.4z"/>
	<path class="st0" d="M479,326.9c3.2-4,2.6-9.9-1.4-13.2c-4-3.2-9.9-2.6-13.2,1.4c-0.1,0.1-11.4,12.4-41.2,12.4
		c-31,0-46.1-12.9-46.8-13.5c-3.8-3.4-9.7-3.1-13.2,0.7c-3.5,3.8-3.2,9.7,0.6,13.2c0.8,0.8,20.6,18.3,59.4,18.3
		C462.2,346.2,477.4,328.8,479,326.9z"/>
</g>
</svg>
