<?xml version="1.0" encoding="utf-8"?>
<!-- Generator: Adobe Illustrator 24.0.1, SVG Export Plug-In . SVG Version: 6.00 Build 0)  -->
<svg version="1.1" id="Layer_1" xmlns="http://www.w3.org/2000/svg" xmlns:xlink="http://www.w3.org/1999/xlink" x="0px" y="0px"
	 viewBox="0 0 841.9 595.3" style="enable-background:new 0 0 841.9 595.3;" xml:space="preserve">
<style type="text/css">
	.st0{fill:#00B0D6;}
</style>
<g>
	<path class="st0" d="M684.9,297.6c0-4,5.5-10.9,11-17.8c8.9-11.2,17.7-22.3,15.3-35.7c-2.5-13.6-14.9-20.8-27.3-28
		c-7.3-4.2-14.6-8.5-15.7-11.5c-1.1-3.1,1.7-11.1,4.5-19.1c4.7-13.3,9.4-26.6,2.6-38.2c-6.8-11.6-20.8-14-34.7-16.3
		c-8.2-1.4-16.4-2.8-18.4-5.2c-2-2.4-2-10.7-1.9-19c0.1-14.1,0.1-28.2-10.1-36.8c-10.3-8.7-24.2-6.3-38-3.8
		c-8.3,1.4-16.5,2.9-19.2,1.3c-2.7-1.6-5.5-9.5-8.3-17.4c-4.8-13.4-9.6-26.8-22.3-31.5c-12.6-4.7-25,2.1-37.4,9
		c-7.5,4.2-15,8.4-18.6,7.7c-3.4-0.6-9-7-14.7-13.5C442,11,432.3,0,418.3,0c-14,0-23.6,11-33.2,21.9c-5.7,6.5-11.3,12.9-14.7,13.5
		c-3.5,0.6-11.1-3.6-18.6-7.7c-12.4-6.9-24.8-13.8-37.4-9c-12.8,4.8-17.6,18.2-22.3,31.5c-2.8,7.9-5.6,15.8-8.3,17.4
		c-2.7,1.6-11,0.1-19.2-1.3c-13.9-2.4-27.7-4.9-38,3.8c-10.2,8.6-10.2,22.7-10.1,36.8c0,8.3,0.1,16.7-1.9,19
		c-2,2.4-10.2,3.8-18.4,5.1c-13.9,2.3-27.9,4.7-34.7,16.3c-6.8,11.6-2.1,24.9,2.6,38.2c2.8,8,5.7,16,4.5,19.1
		c-1.1,3.1-8.4,7.3-15.7,11.5c-12.4,7.2-24.8,14.4-27.3,28c-2.4,13.4,6.4,24.5,15.3,35.7c5.5,6.9,11,13.8,11,17.8
		c0,4-5.5,10.9-11,17.8c-8.9,11.2-17.7,22.3-15.3,35.7c2.5,13.6,14.9,20.8,27.3,28c7.3,4.2,14.6,8.5,15.7,11.5
		c1.1,3.1-1.7,11.1-4.5,19.1c-4.7,13.3-9.4,26.6-2.6,38.2c6.8,11.6,20.8,14,34.7,16.3c8.2,1.4,16.4,2.8,18.4,5.1
		c2,2.4,2,10.7,1.9,19c-0.1,14.1-0.1,28.2,10.1,36.8c10.3,8.7,24.2,6.3,38,3.8c8.3-1.4,16.5-2.9,19.2-1.3c2.7,1.6,5.5,9.5,8.3,17.4
		c4.8,13.4,9.6,26.8,22.3,31.5c12.6,4.7,25-2.1,37.4-9c7.5-4.2,15.1-8.4,18.6-7.7c3.4,0.6,9,7,14.7,13.5
		c9.6,10.9,19.2,21.9,33.2,21.9c14,0,23.6-11,33.2-21.9c5.7-6.5,11.3-12.9,14.7-13.5c3.5-0.6,11.1,3.6,18.6,7.7
		c12.4,6.9,24.8,13.8,37.4,9c12.8-4.8,17.6-18.2,22.3-31.5c2.8-7.9,5.6-15.8,8.3-17.4c2.7-1.6,11-0.1,19.2,1.3
		c13.9,2.4,27.7,4.9,38-3.8c10.2-8.6,10.2-22.7,10.1-36.8c0-8.3-0.1-16.6,1.9-19c2-2.4,10.2-3.8,18.4-5.1
		c13.9-2.3,27.9-4.7,34.7-16.3c6.8-11.6,2.1-24.9-2.6-38.2c-2.8-8-5.7-16-4.5-19.1c1.1-3.1,8.4-7.3,15.7-11.5
		c12.4-7.2,24.8-14.4,27.3-28c2.4-13.4-6.4-24.5-15.3-35.7C690.4,308.5,684.9,301.6,684.9,297.6z M688.4,347c-0.5,3-8.4,7.5-16.1,12
		c-10.9,6.3-21.7,12.6-25.8,23.5c-4.1,11,0.1,23,4.3,34.8c2.9,8.3,5.8,16.5,4.5,18.8c-1.3,2.3-10,3.7-18.6,5.2
		c-12.4,2.1-24.8,4.2-32.3,13c-7.5,8.9-7.4,21.5-7.4,34.1c0,8.7,0.1,17.4-1.9,19.1c-2,1.7-10.5,0.2-19.1-1.3
		c-12.4-2.2-24.8-4.3-34.9,1.6c-10,5.9-14.3,17.7-18.5,29.5c-3,8.3-6,16.7-8.6,17.6c-2.6,1-10.3-3.3-18.1-7.6
		c-11.1-6.2-22.3-12.4-33.9-10.3c-11.4,2.1-19.7,11.5-28,21c-6.1,6.9-12.2,14-15.8,14c-3.6,0-9.7-7-15.8-14
		c-8.3-9.5-16.6-18.9-28-21c-11.6-2.1-22.8,4.1-33.9,10.3c-7.7,4.3-15.4,8.6-18.1,7.6c-2.6-1-5.6-9.3-8.6-17.6
		c-4.2-11.8-8.4-23.6-18.5-29.5c-10.1-5.9-22.5-3.8-34.9-1.6c-8.6,1.5-17.1,3-19.1,1.3c-2-1.7-2-10.4-1.9-19.1
		c0.1-12.6,0.1-25.2-7.4-34.1c-7.5-8.9-19.9-11-32.3-13c-8.6-1.4-17.2-2.9-18.6-5.2c-1.3-2.3,1.6-10.5,4.5-18.8
		c4.2-11.9,8.4-23.8,4.3-34.8c-4.1-10.9-14.9-17.2-25.8-23.5c-7.8-4.5-15.6-9.1-16.1-12c-0.6-3,5-10.1,10.7-17.2
		c8-10.1,16.1-20.2,16.1-32.2c0-12-8.1-22.1-16.1-32.2c-5.6-7.1-11.2-14.1-10.7-17.2c0.5-3,8.4-7.5,16.1-12
		c10.9-6.3,21.7-12.6,25.8-23.5c4.1-11-0.1-22.9-4.3-34.8c-2.9-8.3-5.8-16.5-4.5-18.8c1.3-2.3,10-3.7,18.6-5.2
		c12.4-2.1,24.8-4.2,32.3-13c7.5-8.9,7.4-21.5,7.4-34.1c0-8.7-0.1-17.4,1.9-19.1c2-1.7,10.5-0.2,19.1,1.3
		c12.4,2.2,24.8,4.3,34.9-1.6c10-5.9,14.3-17.7,18.5-29.5c3-8.3,6-16.7,8.6-17.6c2.6-1,10.3,3.3,18.1,7.6
		c11.1,6.2,22.3,12.4,33.9,10.3c11.5-2.1,19.7-11.5,28-21c6.1-6.9,12.2-14,15.8-14c3.5,0,9.7,7,15.8,14c8.3,9.5,16.6,18.9,28,21
		c11.6,2.1,22.8-4.1,33.9-10.3c7.7-4.3,15.4-8.6,18.1-7.6c2.6,1,5.6,9.3,8.6,17.6c4.2,11.8,8.4,23.6,18.5,29.5
		c10.1,5.9,22.5,3.8,34.9,1.6c8.6-1.5,17.1-3,19.1-1.3c2,1.7,2,10.4,1.9,19.1c-0.1,12.6-0.1,25.2,7.4,34.1
		c7.5,8.9,19.9,10.9,32.3,13c8.6,1.4,17.2,2.9,18.6,5.2c1.3,2.3-1.6,10.5-4.5,18.8c-4.2,11.9-8.4,23.8-4.3,34.8
		c4,10.9,14.9,17.2,25.8,23.5c7.8,4.5,15.6,9.1,16.1,12c0.6,3-5,10.1-10.7,17.2c-8,10.1-16.1,20.2-16.1,32.2
		c0,12,8.1,22.1,16.1,32.2C683.3,336.9,688.9,344,688.4,347z"/>
	<path class="st0" d="M562.4,150.2c-6.4,0-11.6,5.2-11.6,11.6c0,2.9,1,5.5,2.8,7.5v0l0,0l0,0c0.2,0.3,0.5,0.5,0.7,0.8
		c31.3,33.3,50.4,78.2,50.4,127.5c0,51.5-20.9,98.1-54.6,131.8c-33.7,33.7-80.3,54.6-131.8,54.6c-22,0-43.2-3.8-62.8-10.8
		c-0.4-0.1-0.7-0.3-1.1-0.4l0,0v0c-1.1-0.3-2.2-0.5-3.4-0.5c-6.4,0-11.6,5.2-11.6,11.6c0,5.3,3.5,9.7,8.3,11.1
		c22.1,7.9,45.8,12.2,70.6,12.2c57.9,0,110.3-23.5,148.2-61.4c37.9-37.9,61.4-90.3,61.4-148.2c0-55.4-21.5-105.8-56.6-143.2
		C569.2,151.8,566,150.2,562.4,150.2z"/>
	<path class="st0" d="M527.3,143.9c6.4,0,11.6-5.2,11.6-11.6c0-6.4-5.2-11.6-11.6-11.6c-6.4,0-11.6,5.2-11.6,11.6
		C515.7,138.7,520.9,143.9,527.3,143.9z"/>
	<path class="st0" d="M481.7,122.3L481.7,122.3c1.4,0.6,2.9,0.9,4.6,0.9c6.4,0,11.6-5.2,11.6-11.6c0-5.3-3.5-9.7-8.3-11.1
		c-22.2-8-46.2-12.4-71.3-12.4c-57.9,0-110.3,23.5-148.2,61.4c-37.9,37.9-61.4,90.3-61.4,148.2c0,55.3,21.4,105.5,56.3,143
		c2.1,2.6,5.3,4.2,8.9,4.2c6.4,0,11.6-5.2,11.6-11.6c0-2.9-1-5.5-2.7-7.5v0l0,0c-0.2-0.3-0.5-0.5-0.7-0.8
		c-31.1-33.3-50.2-78-50.2-127.2c0-51.5,20.9-98.1,54.6-131.8c33.7-33.7,80.3-54.6,131.8-54.6C440.6,111.2,461.9,115.1,481.7,122.3z
		"/>
	<path class="st0" d="M309.3,451.4c-6.4,0-11.6,5.2-11.6,11.6s5.2,11.6,11.6,11.6c6.4,0,11.6-5.2,11.6-11.6S315.8,451.4,309.3,451.4
		z"/>
	<path class="st0" d="M384.8,265.8c8.7-8.7,14.1-20.8,14.1-34.1c0-13.3-5.4-25.4-14.1-34.1c-8.7-8.7-20.8-14.1-34.1-14.1
		c-13.3,0-25.4,5.4-34.1,14.1c-8.7,8.7-14.1,20.8-14.1,34.1c0,13.3,5.4,25.4,14.1,34.1c8.7,8.7,20.8,14.1,34.1,14.1
		C364,279.9,376,274.5,384.8,265.8z M325.6,231.6c0-6.9,2.8-13.2,7.3-17.7c4.5-4.5,10.8-7.3,17.7-7.3c6.9,0,13.2,2.8,17.7,7.3
		c4.5,4.5,7.3,10.8,7.3,17.7c0,6.9-2.8,13.2-7.3,17.7c-4.5,4.5-10.8,7.3-17.7,7.3c-6.9,0-13.2-2.8-17.7-7.3
		C328.4,244.8,325.6,238.6,325.6,231.6z"/>
	<path class="st0" d="M344.3,410c5.3,3.5,12.5,2,16-3.3l135.4-205.3c3.5-5.3,2-12.5-3.3-16c-5.3-3.5-12.5-2-16,3.3L341,394
		C337.5,399.3,339,406.5,344.3,410z"/>
	<path class="st0" d="M451.9,329.5c-8.7,8.7-14.1,20.8-14.1,34.1c0,13.3,5.4,25.4,14.1,34.1c8.7,8.7,20.8,14.1,34.1,14.1
		s25.4-5.4,34.1-14.1c8.7-8.7,14.1-20.8,14.1-34.1s-5.4-25.4-14.1-34.1c-8.7-8.7-20.8-14.1-34.1-14.1S460.6,320.8,451.9,329.5z
		 M511.1,363.6c0,6.9-2.8,13.2-7.3,17.7c-4.5,4.5-10.8,7.3-17.7,7.3c-6.9,0-13.2-2.8-17.7-7.3s-7.3-10.8-7.3-17.7
		c0-6.9,2.8-13.2,7.3-17.7c4.5-4.5,10.8-7.3,17.7-7.3c6.9,0,13.2,2.8,17.7,7.3C508.3,350.5,511.1,356.7,511.1,363.6z"/>
</g>
</svg>
